<svg xmlns="http://www.w3.org/2000/svg" width="31.515" height="15" viewBox="0 0 31.515 31.515"><defs><style>.a{fill:#ffffff;}</style></defs><path class="a" d="M15.757,0A15.757,15.757,0,1,0,31.515,15.757,15.759,15.759,0,0,0,15.757,0Zm7.195,12.286q.01.233.01.467A10.221,10.221,0,0,1,12.672,23.044h0a10.237,10.237,0,0,1-5.544-1.625,7.356,7.356,0,0,0,.863.05,7.257,7.257,0,0,0,4.492-1.548A3.621,3.621,0,0,1,9.1,17.409a3.6,3.6,0,0,0,1.634-.062,3.618,3.618,0,0,1-2.9-3.545c0-.016,0-.031,0-.046a3.592,3.592,0,0,0,1.638.452,3.62,3.62,0,0,1-1.12-4.828,10.268,10.268,0,0,0,7.455,3.779,3.619,3.619,0,0,1,6.163-3.3,7.254,7.254,0,0,0,2.3-.878,3.631,3.631,0,0,1-1.59,2,7.213,7.213,0,0,0,2.077-.57,7.35,7.35,0,0,1-1.8,1.873Zm0,0"/></svg>